<?xml version="1.0" encoding="UTF-8" standalone="no"?>
<!-- Created with Inkscape (http://www.inkscape.org/) -->

<svg
   width="178.33192mm"
   height="64.599571mm"
   viewBox="0 0 178.33192 64.599571"
   version="1.1"
   id="svg1"
   inkscape:version="1.3 (0e150ed6c4, 2023-07-21)"
   sodipodi:docname="engli full path.svg"
   inkscape:export-filename="engli full.png"
   inkscape:export-xdpi="201.31"
   inkscape:export-ydpi="201.31"
   xmlns:inkscape="http://www.inkscape.org/namespaces/inkscape"
   xmlns:sodipodi="http://sodipodi.sourceforge.net/DTD/sodipodi-0.dtd"
   xmlns="http://www.w3.org/2000/svg"
   xmlns:svg="http://www.w3.org/2000/svg">
  <sodipodi:namedview
     id="namedview1"
     pagecolor="#ffffff"
     bordercolor="#000000"
     borderopacity="0.25"
     inkscape:showpageshadow="2"
     inkscape:pageopacity="0.0"
     inkscape:pagecheckerboard="0"
     inkscape:deskcolor="#d1d1d1"
     inkscape:document-units="mm"
     inkscape:zoom="1.4528533"
     inkscape:cx="240.56111"
     inkscape:cy="106.34247"
     inkscape:window-width="1432"
     inkscape:window-height="758"
     inkscape:window-x="413"
     inkscape:window-y="66"
     inkscape:window-maximized="0"
     inkscape:current-layer="layer1" />
  <defs
     id="defs1">
    <rect
       x="200.9313"
       y="379.69894"
       width="517.48798"
       height="222.52533"
       id="rect1" />
    <rect
       x="200.9313"
       y="379.69894"
       width="615.55542"
       height="581.84363"
       id="rect2" />
    <rect
       x="200.9313"
       y="379.69894"
       width="615.55542"
       height="581.84363"
       id="rect3" />
    <rect
       x="200.9313"
       y="379.69894"
       width="615.55542"
       height="581.84363"
       id="rect5" />
    <rect
       x="200.9313"
       y="379.69894"
       width="615.55542"
       height="581.84363"
       id="rect6" />
    <rect
       x="200.9313"
       y="379.69894"
       width="517.48798"
       height="222.52533"
       id="rect13" />
    <rect
       x="200.9313"
       y="379.69894"
       width="615.55542"
       height="581.84363"
       id="rect14" />
    <rect
       x="200.9313"
       y="379.69894"
       width="615.55542"
       height="581.84363"
       id="rect15" />
    <rect
       x="200.9313"
       y="379.69894"
       width="615.55542"
       height="581.84363"
       id="rect16" />
    <rect
       x="200.9313"
       y="379.69894"
       width="615.55542"
       height="581.84363"
       id="rect17" />
    <rect
       x="200.9313"
       y="379.69894"
       width="615.55542"
       height="581.84363"
       id="rect22" />
    <rect
       x="200.9313"
       y="379.69894"
       width="615.55542"
       height="581.84363"
       id="rect23" />
    <rect
       x="200.9313"
       y="379.69894"
       width="615.55542"
       height="581.84363"
       id="rect24" />
    <rect
       x="200.9313"
       y="379.69894"
       width="615.55542"
       height="581.84363"
       id="rect25" />
  </defs>
  <g
     inkscape:label="Layer 1"
     inkscape:groupmode="layer"
     id="layer1"
     transform="translate(25.987444,-24.182451)">
    <rect
       style="fill:#14a992;fill-opacity:1;stroke-width:4.60247;stroke-dashoffset:1.88976"
       id="rect18"
       width="178.33192"
       height="64.599571"
       x="-25.987444"
       y="24.182451"
       ry="4.2576823" />
    <path
       d="m 254.69164,558.19522 q -13.248,0 -24.192,-6.816 -10.848,-6.816 -17.376,-18.24 -6.432,-11.52 -6.432,-25.44 0,-14.016 6.432,-25.536 6.528,-11.52 17.376,-18.336 10.944,-6.816 24.192,-6.816 11.04,0 20.256,4.608 9.216,4.512 15.744,12.576 6.528,7.968 9.6,18.432 3.072,10.368 1.824,22.08 h -74.016 q 1.824,9.984 8.928,16.704 7.2,6.72 17.664,6.816 7.296,0 13.248,-3.648 6.048,-3.648 9.888,-10.08 l 20.256,4.704 q -5.76,12.768 -17.376,20.928 -11.616,8.064 -26.016,8.064 z m -27.264,-58.752 h 54.528 q -0.96,-6.816 -4.896,-12.48 -3.84,-5.664 -9.696,-8.928 -5.76,-3.36 -12.672,-3.36 -10.368,0 -17.952,7.2 -7.584,7.104 -9.312,17.568 z m 177.02385,-4.032 v 60.288 h -19.968 v -55.296 q 0,-6.432 -3.168,-11.712 -3.072,-5.28 -8.352,-8.352 -5.28,-3.168 -11.712,-3.168 -6.336,0 -11.616,3.168 -5.28,3.072 -8.448,8.352 -3.168,5.28 -3.168,11.712 v 55.296 h -19.968 v -96 h 19.968 v 10.176 q 4.992,-5.952 12.288,-9.408 7.296,-3.456 15.744,-3.456 10.656,0 19.296,5.184 8.736,5.184 13.92,13.92 5.184,8.736 5.184,19.296 z m 90.33581,-35.712 h 19.968 v 98.496 q 0,13.248 -7.2,23.52 -7.104,10.272 -18.72,16.128 -11.616,5.856 -24.96,5.856 -10.08,0 -19.392,-4.32 -9.216,-4.224 -16.32,-11.52 -7.104,-7.296 -10.56,-16.512 l 18.336,-8.256 q 2.784,8.928 10.752,14.688 8.064,5.856 17.184,5.856 7.872,0 14.88,-3.264 7.104,-3.264 11.52,-9.024 4.512,-5.664 4.512,-13.152 v -16.224 q -4.704,7.2 -12.192,11.712 -7.392,4.512 -17.088,4.512 -13.632,0 -24.96,-6.816 -11.232,-6.816 -17.952,-18.24 -6.624,-11.52 -6.624,-25.44 0,-13.92 6.624,-25.344 6.72,-11.52 17.952,-18.336 11.328,-6.912 24.96,-6.912 9.696,0 17.088,4.512 7.488,4.512 12.192,11.808 z m -28.992,79.2 q 8.16,0 14.4,-4.224 6.336,-4.32 9.792,-11.424 3.456,-7.104 3.456,-15.552 0,-8.544 -3.552,-15.648 -3.456,-7.104 -9.696,-11.328 -6.24,-4.32 -14.4,-4.32 -8.16,0 -14.88,4.224 -6.624,4.224 -10.56,11.328 -3.936,7.104 -3.936,15.744 0,8.64 3.936,15.744 4.032,7.104 10.656,11.328 6.72,4.128 14.784,4.128 z m 72.95997,16.8 v -144 h 19.968 v 144 z m 43.96785,-96 h 19.96801 v 96 h -19.96801 z m 10.08001,-13.92 q -4.51201,0 -7.58401,-2.976 -3.072,-2.976 -3.072,-7.488 0,-4.416 3.072,-7.392 3.072,-3.072 7.58401,-3.072 4.41599,0 7.48799,3.072 3.072,2.976 3.072,7.392 0,4.512 -3.072,7.488 -2.976,2.976 -7.48799,2.976 z"
       id="text8"
       style="font-weight:600;font-size:192px;font-family:Urbanist;-inkscape-font-specification:'Urbanist Semi-Bold';white-space:pre;fill:#ffffff;stroke-width:16.8;stroke-dashoffset:1.88976"
       transform="matrix(0.26458333,0,0,0.26458333,-20.970988,-74.099841)"
       aria-label="engli" />
    <rect
       style="fill:#ffffff;fill-opacity:1;stroke-width:1.63481;stroke-dashoffset:1.88976"
       id="rect8"
       width="38.124607"
       height="38.124607"
       x="-12.311801"
       y="34.83083"
       ry="2.5127485" />
    <path
       style="font-weight:600;font-size:192px;font-family:Urbanist;-inkscape-font-specification:'Urbanist Semi-Bold';text-align:center;text-anchor:middle;white-space:pre;fill:#14a992;stroke-width:16.8;stroke-dashoffset:1.88976"
       d="m 467.95695,555.69922 v -134.4 h 83.424 v 19.968 h -63.456 v 32.448 h 51.072 v 19.968 h -51.072 v 42.048 h 63.456 v 19.968 z"
       id="text9"
       transform="matrix(0.10691422,0,0,0.10691422,-56.272602,-6.113102)"
       aria-label="E" />
    <path
       style="font-weight:600;font-size:192px;font-family:Urbanist;-inkscape-font-specification:'Urbanist Semi-Bold';text-align:center;text-anchor:middle;white-space:pre;fill:#14a992;stroke-width:16.8;stroke-dashoffset:1.88976"
       d="m 561.98889,559.15522 -15.36,-15.264 q -8.064,6.528 -18.144,10.176 -9.984,3.648 -21.024,3.648 -13.728,0 -25.728,-5.376 -12,-5.472 -21.12,-14.976 -9.12,-9.6 -14.304,-22.272 -5.088,-12.672 -5.088,-27.072 0,-14.4 5.088,-26.976 5.184,-12.672 14.304,-22.272 9.12,-9.6 21.12,-14.976 12,-5.472 25.728,-5.472 13.728,0 25.632,5.472 12,5.376 21.12,14.976 9.12,9.6 14.208,22.272 5.184,12.576 5.184,26.976 0,11.712 -3.552,22.272 -3.456,10.56 -9.6,19.2 l 15.648,15.552 z m -54.528,-21.408 q 13.824,0 24.672,-8.448 l -14.88,-14.784 14.112,-14.208 14.208,14.304 q 8.064,-11.904 8.064,-26.592 0,-13.632 -6.24,-24.96 -6.24,-11.328 -16.8,-18.048 -10.464,-6.72 -23.136,-6.72 -12.768,0 -23.328,6.816 -10.464,6.816 -16.704,18.144 -6.24,11.232 -6.24,24.768 0,13.728 6.24,25.056 6.336,11.232 16.8,17.952 10.56,6.72 23.232,6.72 z"
       id="text10"
       transform="matrix(0.10691422,0,0,0.10691422,-40.771488,-6.113102)"
       aria-label="Q" />
    <path
       style="font-weight:600;font-size:192px;font-family:Urbanist;-inkscape-font-specification:'Urbanist Semi-Bold';text-align:center;text-anchor:middle;white-space:pre;fill:#14a992;stroke-width:16.8;stroke-dashoffset:1.88976"
       d="m 470.69291,555.69922 v -134.4 h 19.968 v 114.432 h 57.888 v 19.968 z"
       id="text11"
       transform="matrix(0.11456037,0,0,0.10691422,-60.164102,9.76251)"
       aria-label="L" />
    <path
       style="font-weight:600;font-size:192px;font-family:Urbanist;-inkscape-font-specification:'Urbanist Semi-Bold';text-align:center;text-anchor:middle;white-space:pre;fill:#14a992;stroke-width:16.8;stroke-dashoffset:1.88976"
       d="m 541.01294,421.29922 h 23.52 l -45.888,73.728 v 60.672 h -19.968 v -60.672 l -45.792,-73.728 h 23.52 l 32.256,51.936 z"
       id="text12"
       transform="matrix(0.10691422,0,0,0.10691422,-40.776625,9.76251)"
       aria-label="Y" />
  </g>
</svg>
