<?xml version="1.0" encoding="UTF-8" standalone="no"?>
<!-- Created with Inkscape (http://www.inkscape.org/) -->

<svg
   width="38.124607mm"
   height="38.124607mm"
   viewBox="0 0 38.124607 38.124607"
   version="1.1"
   id="svg1"
   inkscape:version="1.3 (0e150ed6c4, 2023-07-21)"
   sodipodi:docname="engli icon.svg"
   xmlns:inkscape="http://www.inkscape.org/namespaces/inkscape"
   xmlns:sodipodi="http://sodipodi.sourceforge.net/DTD/sodipodi-0.dtd"
   xmlns="http://www.w3.org/2000/svg"
   xmlns:svg="http://www.w3.org/2000/svg">
  <sodipodi:namedview
     id="namedview1"
     pagecolor="#ffffff"
     bordercolor="#000000"
     borderopacity="0.25"
     inkscape:showpageshadow="2"
     inkscape:pageopacity="0.0"
     inkscape:pagecheckerboard="0"
     inkscape:deskcolor="#d1d1d1"
     inkscape:document-units="mm"
     inkscape:zoom="2.7479362"
     inkscape:cx="59.499198"
     inkscape:cy="82.243539"
     inkscape:window-width="1432"
     inkscape:window-height="743"
     inkscape:window-x="268"
     inkscape:window-y="146"
     inkscape:window-maximized="0"
     inkscape:current-layer="layer1" />
  <defs
     id="defs1">
    <rect
       x="200.9313"
       y="379.69894"
       width="517.48798"
       height="222.52533"
       id="rect1" />
    <rect
       x="200.9313"
       y="379.69894"
       width="615.55542"
       height="581.84363"
       id="rect2" />
    <rect
       x="200.9313"
       y="379.69894"
       width="615.55542"
       height="581.84363"
       id="rect3" />
    <rect
       x="200.9313"
       y="379.69894"
       width="615.55542"
       height="581.84363"
       id="rect5" />
    <rect
       x="200.9313"
       y="379.69894"
       width="615.55542"
       height="581.84363"
       id="rect6" />
    <rect
       x="200.9313"
       y="379.69894"
       width="517.48798"
       height="222.52533"
       id="rect13" />
    <rect
       x="200.9313"
       y="379.69894"
       width="615.55542"
       height="581.84363"
       id="rect14" />
    <rect
       x="200.9313"
       y="379.69894"
       width="615.55542"
       height="581.84363"
       id="rect15" />
    <rect
       x="200.9313"
       y="379.69894"
       width="615.55542"
       height="581.84363"
       id="rect16" />
    <rect
       x="200.9313"
       y="379.69894"
       width="615.55542"
       height="581.84363"
       id="rect17" />
    <rect
       x="200.9313"
       y="379.69894"
       width="615.55542"
       height="581.84363"
       id="rect22" />
    <rect
       x="200.9313"
       y="379.69894"
       width="615.55542"
       height="581.84363"
       id="rect23" />
    <rect
       x="200.9313"
       y="379.69894"
       width="615.55542"
       height="581.84363"
       id="rect24" />
    <rect
       x="200.9313"
       y="379.69894"
       width="615.55542"
       height="581.84363"
       id="rect25" />
  </defs>
  <g
     inkscape:label="Layer 1"
     inkscape:groupmode="layer"
     id="layer1"
     transform="translate(-13.745002,-53.061018)">
    <rect
       style="fill:#14a992;fill-opacity:1;stroke-width:1.63481;stroke-dashoffset:1.88976"
       id="rect7"
       width="38.124607"
       height="38.124607"
       x="13.745003"
       y="53.06102"
       ry="2.5127485" />
    <path
       style="font-weight:600;font-size:192px;font-family:Urbanist;-inkscape-font-specification:'Urbanist Semi-Bold';text-align:center;text-anchor:middle;white-space:pre;fill:#ffffff;stroke-width:16.8;stroke-dashoffset:1.88976"
       d="m 467.95695,555.69922 v -134.4 h 83.424 v 19.968 h -63.456 v 32.448 h 51.072 v 19.968 h -51.072 v 42.048 h 63.456 v 19.968 z"
       id="text2"
       transform="matrix(0.10691422,0,0,0.10691422,-30.215801,12.11709)"
       aria-label="E" />
    <path
       style="font-weight:600;font-size:192px;font-family:Urbanist;-inkscape-font-specification:'Urbanist Semi-Bold';text-align:center;text-anchor:middle;white-space:pre;fill:#ffffff;stroke-width:16.8;stroke-dashoffset:1.88976"
       d="m 561.98889,559.15522 -15.36,-15.264 q -8.064,6.528 -18.144,10.176 -9.984,3.648 -21.024,3.648 -13.728,0 -25.728,-5.376 -12,-5.472 -21.12,-14.976 -9.12,-9.6 -14.304,-22.272 -5.088,-12.672 -5.088,-27.072 0,-14.4 5.088,-26.976 5.184,-12.672 14.304,-22.272 9.12,-9.6 21.12,-14.976 12,-5.472 25.728,-5.472 13.728,0 25.632,5.472 12,5.376 21.12,14.976 9.12,9.6 14.208,22.272 5.184,12.576 5.184,26.976 0,11.712 -3.552,22.272 -3.456,10.56 -9.6,19.2 l 15.648,15.552 z m -54.528,-21.408 q 13.824,0 24.672,-8.448 l -14.88,-14.784 14.112,-14.208 14.208,14.304 q 8.064,-11.904 8.064,-26.592 0,-13.632 -6.24,-24.96 -6.24,-11.328 -16.8,-18.048 -10.464,-6.72 -23.136,-6.72 -12.768,0 -23.328,6.816 -10.464,6.816 -16.704,18.144 -6.24,11.232 -6.24,24.768 0,13.728 6.24,25.056 6.336,11.232 16.8,17.952 10.56,6.72 23.232,6.72 z"
       id="text3"
       transform="matrix(0.10691422,0,0,0.10691422,-14.714688,12.11709)"
       aria-label="Q" />
    <path
       style="font-weight:600;font-size:192px;font-family:Urbanist;-inkscape-font-specification:'Urbanist Semi-Bold';text-align:center;text-anchor:middle;white-space:pre;fill:#ffffff;stroke-width:16.8;stroke-dashoffset:1.88976"
       d="m 470.69291,555.69922 v -134.4 h 19.968 v 114.432 h 57.888 v 19.968 z"
       id="text4"
       transform="matrix(0.11456037,0,0,0.10691422,-34.107301,27.992702)"
       aria-label="L" />
    <path
       style="font-weight:600;font-size:192px;font-family:Urbanist;-inkscape-font-specification:'Urbanist Semi-Bold';text-align:center;text-anchor:middle;white-space:pre;fill:#ffffff;stroke-width:16.8;stroke-dashoffset:1.88976"
       d="m 541.01294,421.29922 h 23.52 l -45.888,73.728 v 60.672 h -19.968 v -60.672 l -45.792,-73.728 h 23.52 l 32.256,51.936 z"
       id="text5"
       transform="matrix(0.10691422,0,0,0.10691422,-14.719825,27.992702)"
       aria-label="Y" />
  </g>
</svg>
